<svg xmlns="http://www.w3.org/2000/svg" viewBox="0 0 256 256"><path d="M41.92,185.34c0-17.91,26.12-46.77,43.79-58-17.42-11.2-40.56-39.81-40.56-57.22C45.65,41.8,53.86,0,130.24,0c72.64,0,83.09,41.55,83.84,69.91,0,17.91-21.15,47-39.06,58,17.42,11.19,36.07,39.8,36.07,57.46C210.6,213.71,192.44,256,130.24,256,62.07,256,42.42,213.21,41.92,185.34ZM153.63,75.88c0-16.92-8.22-35.08-23.39-35.08-13.68,0-20.15,14.43-20.15,29.61,0,17.16,8.21,35.08,23.38,35.08C147.16,105.49,153.63,91.06,153.63,75.88Zm0,109.22c0-17.17-8.22-35.33-23.39-35.33-13.68,0-19.9,14.43-19.9,29.85,0,17.17,8,35.33,23.13,35.33C147.16,215,153.63,200.52,153.63,185.1Z"/></svg>