<svg xmlns="http://www.w3.org/2000/svg" viewBox="0 0 256 256"><path d="M130.24,1C162,1,184.91,9.06,198.36,25c9.4,11.12,14.22,25.83,14.72,44.95,0,8.1-4.61,19.41-12.64,31C192.77,112,183.08,121.78,174.5,127l-1.36.83,1.34.87c17.64,11.34,35.61,39.92,35.61,56.61-.29,16.78-6.5,33.3-17,45.32C178.89,246.81,157.75,255,130.24,255c-30.15,0-53.3-8.27-68.81-24.57a68.14,68.14,0,0,1-18.51-45.09c0-7.85,5.34-18.82,15-30.87,8.44-10.49,19.28-20.55,28.27-26.25l1.33-.84-1.32-.84c-18-11.6-40.1-39.9-40.1-56.36C46.67,40.48,56,1,130.24,1m3.23,105.49c14.61,0,21.16-15.38,21.16-30.61,0-17.49-8.55-36.08-24.39-36.08-14.61,0-21.15,15.37-21.15,30.61,0,17.49,8.54,36.08,24.38,36.08m0,109.46c14.61,0,21.16-15.5,21.16-30.85,0-17.61-8.55-36.33-24.39-36.33-15.43,0-20.9,16.62-20.9,30.85,0,9.07,2.19,18,6,24.61,4.46,7.67,10.73,11.72,18.12,11.72M130.24,0C53.86,0,45.65,41.8,45.15,70.16c0,17.41,23.14,46,40.56,57.22-17.67,11.19-43.79,40.05-43.79,58,.5,27.87,20.15,70.66,88.32,70.66,62.2,0,80.36-42.29,80.85-70.66,0-17.66-18.65-46.27-36.07-57.46,17.91-10.95,39.06-40.06,39.06-58C213.33,41.55,202.88,0,130.24,0Zm3.23,105.49c-15.17,0-23.38-17.92-23.38-35.08,0-15.18,6.47-29.61,20.15-29.61,15.17,0,23.39,18.16,23.39,35.08,0,15.18-6.47,29.61-20.16,29.61Zm0,109.46c-15.17,0-23.13-18.16-23.13-35.33,0-15.42,6.22-29.85,19.9-29.85,15.17,0,23.39,18.16,23.39,35.33,0,15.42-6.47,29.85-20.16,29.85Z" fill="#fff"/></svg>